<?xml version="1.0" encoding="UTF-8"?>
<!DOCTYPE svg PUBLIC "-//W3C//DTD SVG 1.1//EN" "http://www.w3.org/Graphics/SVG/1.1/DTD/svg11.dtd">
<svg xmlns="http://www.w3.org/2000/svg" version="1.1" width="2000px" height="2000px" style="shape-rendering:geometricPrecision; text-rendering:geometricPrecision; image-rendering:optimizeQuality; fill-rule:evenodd; clip-rule:evenodd" xmlns:xlink="http://www.w3.org/1999/xlink">
<g><path style="opacity:1" fill="none" d="M -0.5,-0.5 C 666.167,-0.5 1332.83,-0.5 1999.5,-0.5C 1999.5,666.167 1999.5,1332.83 1999.5,1999.5C 1332.83,1999.5 666.167,1999.5 -0.5,1999.5C -0.5,1332.83 -0.5,666.167 -0.5,-0.5 Z"/></g>
<g><path style="opacity:1" fill="#ae885d" d="M 1050.5,581.5 C 1050.34,582.873 1050.51,584.207 1051,585.5C 1056.69,595.57 1062.86,605.237 1069.5,614.5C 1071.07,614.937 1072.24,615.937 1073,617.5C 1077.43,624.694 1081.6,632.027 1085.5,639.5C 1088.36,646.877 1092.02,653.877 1096.5,660.5C 1101.75,668.594 1106.92,677.261 1112,686.5C 1115.47,691.816 1120.31,693.649 1126.5,692C 1169.14,665.476 1211.8,639.309 1254.5,613.5C 1254.97,612.307 1255.97,611.64 1257.5,611.5C 1263.42,609.93 1269.08,610.264 1274.5,612.5C 1272.14,612.337 1269.81,612.503 1267.5,613C 1276.51,613.925 1284.35,617.425 1291,623.5C 1300.74,635.777 1303.07,649.443 1298,664.5C 1295.19,669.677 1294.36,675.01 1295.5,680.5C 1281.97,736.124 1268.31,791.791 1254.5,847.5C 1254.88,849.383 1255.88,850.883 1257.5,852C 1287.87,864.241 1313.54,882.741 1334.5,907.5C 1333.47,907.897 1333.31,908.563 1334,909.5C 1347.15,925.168 1357.65,942.501 1365.5,961.5C 1365.32,962.554 1364.99,963.554 1364.5,964.5C 1366.72,969.312 1369.22,973.979 1372,978.5C 1376.77,993.328 1380.93,1007.66 1384.5,1021.5C 1386.31,1022.92 1386.97,1024.92 1386.5,1027.5C 1385.71,1026.39 1385.21,1025.06 1385,1023.5C 1384.83,1024.5 1384.67,1025.5 1384.5,1026.5C 1386.96,1038.27 1389.29,1049.94 1391.5,1061.5C 1392.73,1062.15 1393.39,1063.32 1393.5,1065C 1395.2,1080.17 1396.86,1095.34 1398.5,1110.5C 1397.84,1112.81 1397.5,1115.31 1397.5,1118C 1401.79,1161.88 1401.46,1205.71 1396.5,1249.5C 1396.51,1251.05 1396.84,1252.38 1397.5,1253.5C 1384.61,1325.86 1344.95,1377.36 1278.5,1408C 1244.22,1421.4 1208.88,1431.07 1172.5,1437C 1099.69,1447.26 1026.69,1451.1 953.5,1448.5C 940.354,1447.18 927.021,1446.51 913.5,1446.5C 870.272,1443.16 827.438,1437.16 785,1428.5C 757.88,1421.85 731.713,1412.52 706.5,1400.5C 698.279,1396.56 690.612,1391.9 683.5,1386.5C 683.611,1385.88 683.944,1385.38 684.5,1385C 675.628,1379.39 667.294,1373.06 659.5,1366C 653.917,1359.59 648.251,1353.42 642.5,1347.5C 627.513,1329.53 616.679,1309.2 610,1286.5C 608.371,1278.67 606.371,1271 604,1263.5C 603.503,1260.85 603.336,1258.19 603.5,1255.5C 602.197,1240.86 601.031,1226.19 600,1211.5C 599.501,1216.82 599.334,1222.16 599.5,1227.5C 598.511,1222.02 598.178,1216.36 598.5,1210.5C 598.5,1209.83 598.5,1209.17 598.5,1208.5C 599.331,1197.01 599.831,1185.34 600,1173.5C 600.333,1170.83 600.667,1168.17 601,1165.5C 601.49,1166.79 601.657,1168.13 601.5,1169.5C 604.855,1169.3 606.522,1167.8 606.5,1165C 605.5,1164.67 604.5,1164.33 603.5,1164C 604.696,1163.35 604.696,1162.85 603.5,1162.5C 602.833,1162.83 602.167,1163.17 601.5,1163.5C 600.944,1149.67 600.61,1136.01 600.5,1122.5C 603.777,1072.94 612.111,1024.27 625.5,976.5C 626.396,974.664 627.396,972.997 628.5,971.5C 633.818,959.527 639.151,947.527 644.5,935.5C 652.068,924.425 660.234,913.758 669,903.5C 681.891,889.758 696.057,877.758 711.5,867.5C 711.369,866.624 711.702,865.957 712.5,865.5C 722.175,859.728 732.175,854.728 742.5,850.5C 742.775,852.842 743.608,852.842 745,850.5C 745.167,849.333 745.333,848.167 745.5,847C 739.986,826.776 735.819,806.276 733,785.5C 732.581,789.852 731.914,790.185 731,786.5C 726.839,769.523 722.839,752.523 719,735.5C 718.617,734.944 718.117,734.611 717.5,734.5C 713.914,724.923 711.58,714.923 710.5,704.5C 710.459,697.457 708.959,690.79 706,684.5C 703.755,672.61 701.255,660.777 698.5,649C 699.676,627.325 711.009,615.159 732.5,612.5C 734.167,612.667 735.833,612.833 737.5,613C 738.126,613.75 738.626,614.584 739,615.5C 740.313,614.427 741.813,613.76 743.5,613.5C 746.86,614.519 750.193,615.519 753.5,616.5C 754.93,616.421 756.264,616.754 757.5,617.5C 764.437,622.595 771.77,627.095 779.5,631C 792.405,639.275 805.071,647.775 817.5,656.5C 818.29,657.794 819.29,658.961 820.5,660C 836.889,669.856 853.222,679.689 869.5,689.5C 872.028,690.011 874.528,690.678 877,691.5C 878.627,691.375 880.127,690.875 881.5,690C 885.364,684.3 889.031,678.467 892.5,672.5C 893.357,671.575 894.357,670.908 895.5,670.5C 904.642,656.231 913.809,641.898 923,627.5C 924.009,625.975 924.509,624.308 924.5,622.5C 925.212,620.072 926.212,617.739 927.5,615.5C 940.416,593.999 953.583,572.666 967,551.5C 982.623,533.927 1000.79,530.76 1021.5,542C 1025.3,544.797 1028.8,547.964 1032,551.5C 1038,561.652 1044.17,571.652 1050.5,581.5 Z"/></g>
<g><path style="opacity:1" fill="#face77" d="M 1196.5,677.5 C 1202.52,674.437 1208.52,671.27 1214.5,668C 1228.83,658.167 1243.49,648.834 1258.5,640C 1270.6,638.265 1275.93,643.432 1274.5,655.5C 1274.67,656.492 1274.34,657.158 1273.5,657.5C 1272.21,659.109 1271.04,661.443 1270,664.5C 1267.53,678.698 1264.36,692.698 1260.5,706.5C 1260.54,707.416 1260.88,708.083 1261.5,708.5C 1261.67,709.492 1261.34,710.158 1260.5,710.5C 1258.91,715.595 1257.08,721.262 1255,727.5C 1246.16,765.563 1236.99,803.563 1227.5,841.5C 1226.67,841.833 1225.83,842.167 1225,842.5C 1155.36,844.046 1085.69,844.713 1016,844.5C 936.22,844.482 856.72,843.982 777.5,843C 775.423,842.808 773.423,842.308 771.5,841.5C 758.973,791.95 747.14,742.284 736,692.5C 735.34,690.676 734.173,689.343 732.5,688.5C 732.149,685.097 731.482,681.763 730.5,678.5C 731.139,677.903 731.472,677.07 731.5,676C 730.055,668.387 728.222,660.887 726,653.5C 724.51,642.941 729.01,638.107 739.5,639C 770.971,657.569 801.971,676.903 832.5,697C 833.448,697.483 834.448,697.649 835.5,697.5C 839.199,700.874 843.199,704.041 847.5,707C 852.997,709.245 857.997,712.245 862.5,716C 873.972,720.858 885.306,720.525 896.5,715C 897.774,714.023 897.774,713.189 896.5,712.5C 896.842,711.662 897.508,711.328 898.5,711.5C 898.435,711.938 898.601,712.272 899,712.5C 902.342,709.491 905.342,706.157 908,702.5C 913.667,693.167 919.333,683.833 925,674.5C 925.49,673.207 925.657,671.873 925.5,670.5C 925.66,668.847 926.326,667.514 927.5,666.5C 927.351,667.552 927.517,668.552 928,669.5C 947.35,637.458 966.684,605.458 986,573.5C 991.376,564.172 998.876,562.006 1008.5,567C 1038,614.195 1067.17,661.695 1096,709.5C 1107.19,719.727 1120.02,722.227 1134.5,717C 1155.74,704.558 1176.41,691.391 1196.5,677.5 Z"/></g>
7: <g><path style="opacity:1" fill="#9d7e5f" d="M 1050.5,581.5 C 1057.57,591.97 1063.91,602.97 1069.5,614.5C 1062.86,605.237 1056.69,595.57 1051,585.5C 1050.51,584.207 1050.34,582.873 1050.5,581.5 Z"/></g>
8: <g><path style="opacity:1" fill="#9b7b5c" d="M 753.5,616.5 C 750.193,615.519 746.86,614.519 743.5,613.5C 741.813,613.76 740.313,614.427 739,615.5C 738.626,614.584 738.126,613.75 737.5,613C 735.833,612.833 734.167,612.667 732.5,612.5C 711.009,615.159 699.676,627.325 698.5,649C 701.255,660.777 703.755,672.61 706,684.5C 708.959,690.79 710.459,697.457 710.5,704.5C 709.279,702.378 708.279,700.044 707.5,697.5C 706.082,690.07 704.415,682.737 702.5,675.5C 702.58,672.219 701.913,669.219 700.5,666.5C 695.492,651.749 696.992,637.749 705,624.5C 719.237,609.146 735.404,606.479 753.5,616.5 Z"/></g>
9: <g><path style="opacity:1" fill="#977758" d="M 1274.5,612.5 C 1286.84,616.28 1295.34,624.28 1300,636.5C 1301.5,643.099 1301.83,649.766 1301,656.5C 1299.6,664.649 1297.77,672.649 1295.5,680.5C 1294.36,675.01 1295.19,669.677 1298,664.5C 1303.07,649.443 1300.74,635.777 1291,623.5C 1284.35,617.425 1276.51,613.925 1267.5,613C 1269.81,612.503 1272.14,612.337 1274.5,612.5 Z"/></g>
10: <g><path style="opacity:1" fill="#9f7f62" d="M 924.5,622.5 C 924.509,624.308 924.009,625.975 923,627.5C 913.809,641.898 904.642,656.231 895.5,670.5C 898.338,663.493 901.838,656.826 906,650.5C 912.422,641.262 918.589,631.928 924.5,622.5 Z"/></g>
11: <g><path style="opacity:1" fill="#9d7d5f" d="M 1254.5,613.5 C 1211.8,639.309 1169.14,665.476 1126.5,692C 1120.31,693.649 1115.47,691.816 1112,686.5C 1106.92,677.261 1101.75,668.594 1096.5,660.5C 1092.02,653.877 1088.36,646.877 1085.5,639.5C 1095.65,655.802 1105.82,672.135 1116,688.5C 1121.26,692.584 1126.1,692.084 1130.5,687C 1136.89,682.965 1143.56,679.298 1150.5,676C 1182.96,654.597 1215.96,633.93 1249.5,614C 1251.13,613.506 1252.8,613.34 1254.5,613.5 Z"/></g>
12: <g><path style="opacity:1" fill="#f2da7b" d="M 1274.5,655.5 C 1275.93,643.432 1270.6,638.265 1258.5,640C 1243.49,648.834 1228.83,658.167 1214.5,668C 1208.52,671.27 1202.52,674.437 1196.5,677.5C 1217.3,663.262 1238.63,649.762 1260.5,637C 1272.76,637.336 1277.43,643.502 1274.5,655.5 Z"/></g>
13: <g><path style="opacity:1" fill="#f3db7c" d="M 1196.5,677.5 C 1176.41,691.391 1155.74,704.558 1134.5,717C 1120.02,722.227 1107.19,719.727 1096,709.5C 1067.17,661.695 1038,614.195 1008.5,567C 998.876,562.006 991.376,564.172 986,573.5C 966.684,605.458 947.35,637.458 928,669.5C 927.517,668.552 927.351,667.552 927.5,666.5C 947.641,633.564 967.808,600.564 988,567.5C 996.935,559.149 1005.27,559.816 1013,569.5C 1040.7,615.187 1068.37,660.854 1096,706.5C 1105.24,717.285 1116.74,720.785 1130.5,717C 1152.4,703.58 1174.4,690.413 1196.5,677.5 Z"/></g>
14: <g><path style="opacity:1" fill="#f3db7b" d="M 835.5,697.5 C 834.448,697.649 833.448,697.483 832.5,697C 801.971,676.903 770.971,657.569 739.5,639C 729.01,638.107 724.51,642.941 726,653.5C 728.222,660.887 730.055,668.387 731.5,676C 731.472,677.07 731.139,677.903 730.5,678.5C 728.98,671.102 727.146,663.769 725,656.5C 721.511,642.682 726.678,636.182 740.5,637C 766.633,653.571 792.966,669.904 819.5,686C 825.077,689.61 830.41,693.443 835.5,697.5 Z"/></g>
15: <g><path style="opacity:1" fill="#c6b7a9" d="M 700.5,666.5 C 701.913,669.219 702.58,672.219 702.5,675.5C 701.087,672.781 700.42,669.781 700.5,666.5 Z"/></g>
16: <g><path style="opacity:1" fill="#9a7a5c" d="M 817.5,656.5 C 835.373,666.718 852.706,677.718 869.5,689.5C 853.222,679.689 836.889,669.856 820.5,660C 819.29,658.961 818.29,657.794 817.5,656.5 Z"/></g>
17: <g><path style="opacity:1" fill="#f3da7b" d="M 925.5,670.5 C 925.657,671.873 925.49,673.207 925,674.5C 919.333,683.833 913.667,693.167 908,702.5C 905.342,706.157 902.342,709.491 899,712.5C 898.601,712.272 898.435,711.938 898.5,711.5C 904.378,704.952 909.044,697.619 912.5,689.5C 917.08,683.34 921.414,677.007 925.5,670.5C Z"/></g>
18: <g><path style="opacity:1" fill="#f3db7c" d="M 1273.5,657.5 C 1269.65,674.551 1265.65,691.551 1261.5,708.5C 1260.88,708.083 1260.54,707.416 1260.5,706.5C 1264.36,692.698 1267.53,678.698 1270,664.5C 1271.04,661.443 1272.21,659.109 1273.5,657.5 Z"/></g>
19: <g><path style="opacity:1" fill="#f3dc7c" d="M 835.5,697.5 C 842.816,701.806 850.149,706.139 857.5,710.5C 869.996,720.402 882.996,721.068 896.5,712.5C 897.774,713.189 897.774,714.023 896.5,715C 885.306,720.525 873.972,720.858 862.5,716C 857.997,712.245 852.997,709.245 847.5,707C 843.199,704.041 839.199,700.874 835.5,697.5 Z"/></g>
20: <g><path style="opacity:1" fill="#a57a56" d="M 912.5,689.5 C 909.044,697.619 904.378,704.952 898.5,711.5C 897.508,711.328 896.842,711.662 896.5,712.5C 882.996,721.068 869.996,720.402 857.5,710.5C 862.061,711.541 866.728,713.374 871.5,716C 888.371,717.944 900.371,711.277 907.5,696C 907.167,695.667 906.833,695.333 906.5,695C 909.023,693.64 911.023,691.807 912.5,689.5 Z"/></g>
21: <g><path style="opacity:1" fill="#9f7e5e" d="M 717.5,734.5 C 718.117,734.611 718.617,734.944 719,735.5C 722.839,752.523 726.839,769.523 731,786.5C 731.914,790.185 732.581,789.852 733,785.5C 735.819,806.276 739.986,826.776 745.5,847C 745.333,848.167 745.167,849.333 745,850.5C 743.608,852.842 742.775,852.842 742.5,850.5C 743.88,850.038 744.547,849.038 744.5,847.5C 739.726,826.443 734.393,805.61 728.5,785C 725.145,768.054 721.478,751.221 717.5,734.5 Z"/></g>
22: <g><path style="opacity:1" fill="#d6b46b" d="M 772.5,844.5 C 803.016,844.197 833.349,844.864 863.5,846.5C 832.993,846.377 802.66,845.71 772.5,844.5 Z"/></g>
23: <g><path style="opacity:1" fill="#f4db7c" d="M 732.5,688.5 C 734.173,689.343 735.34,690.676 736,692.5C 747.14,742.284 758.973,791.95 771.5,841.5C 773.423,842.308 775.423,842.808 777.5,843C 856.72,843.982 936.22,844.482 1016,844.5C 1085.69,844.713 1155.36,844.046 1225,842.5C 1225.83,842.167 1226.67,841.833 1227.5,841.5C 1236.99,803.563 1246.16,765.563 1255,727.5C 1257.08,721.262 1258.91,715.595 1260.5,710.5C 1250.65,754.259 1240.48,797.926 1230,841.5C 1228.83,842.667 1227.67,843.833 1226.5,845C 1206.66,845.168 1187,845.668 1167.5,846.5C 1130.5,846.5 1093.5,846.5 1056.5,846.5C 992.167,846.5 927.833,846.5 863.5,846.5C 833.349,844.864 803.016,844.197 772.5,844.5C 771.206,843.71 770.039,842.71 769,841.5C 757.277,790.381 745.11,739.381 732.5,688.5 Z"/></g>
24: <g><path style="opacity:1" fill="#9b7152" d="M 1056.5,846.5 C 1093.5,846.5 1130.5,846.5 1167.5,846.5C 1180.17,846.333 1192.84,846.5 1205.5,847C 1100.17,848.484 994.837,848.817 889.5,848C 945.335,847.833 1001,847.333 1056.5,846.5 Z"/></g>
25: <g><path style="opacity:1" fill="#f9e1ae" d="M 765.5,868.5 C 797.651,870.528 829.985,871.862 862.5,872.5C 865.541,873.229 868.541,874.396 871.5,876C 868.721,876.149 868.221,876.983 870,878.5C 872.598,876.387 875.431,875.887 878.5,877C 877.289,876.107 877.289,875.274 878.5,874.5C 879.425,875.641 880.259,875.641 881,874.5C 880.676,878.985 881.843,879.318 884.5,875.5C 885.814,876.313 886.981,877.313 888,878.5C 888.359,875.456 889.026,875.122 890,877.5C 891.822,875.955 893.989,875.288 896.5,875.5C 898.167,875.667 899.833,875.833 901.5,876C 900.304,876.654 900.304,877.154 901.5,877.5C 902.5,876.833 903.5,876.167 904.5,875.5C 905.711,876.274 905.711,877.107 904.5,878C 905,878.167 905.5,878.333 906,878.5C 907.451,877.645 908.951,877.478 910.5,878C 909.672,877.085 908.672,876.419 907.5,876C 910.963,874.965 913.796,875.798 916,878.5C 916.667,877.167 917.333,877.167 918,878.5C 918.833,877.5 919.667,876.5 920.5,875.5C 922.564,877.978 924.564,877.978 926.5,875.5C 929.082,879.489 931.249,879.156 933,874.5C 933.333,875.5 933.667,876.5 934,877.5C 937.314,876.27 940.647,876.603 944,878.5C 946.855,877.929 949.855,877.929 953,878.5C 954.676,877.939 956.009,876.939 957,875.5C 957.333,876.167 957.667,876.833 958,877.5C 959.117,877.335 960.284,877.002 961.5,876.5C 962.148,878.149 963.148,879.482 964.5,880.5C 965.281,879.263 966.281,878.263 967.5,877.5C 967.833,878.167 968.167,878.833 968.5,879.5C 969.5,878.833 970.5,878.167 971.5,877.5C 972.98,878.989 973.813,880.655 974,882.5C 974.273,880.899 974.773,879.399 975.5,878C 975.167,877.667 974.833,877.333 974.5,877C 978.21,877.181 981.71,877.681 985,878.5C 986.154,876.043 987.488,876.043 989,878.5C 990.604,877.351 992.27,877.351 994,878.5C 995.098,879.384 995.598,880.384 995.5,881.5C 996.429,880.311 996.762,878.978 996.5,877.5C 998.467,877.739 1000.3,877.406 1002,876.5C 1002.39,880.166 1003.56,880.332 1005.5,877C 1007.77,876.242 1009.94,876.409 1012,877.5C 1012.33,876.833 1012.67,876.167 1013,875.5C 1015,876.833 1017,878.167 1019,879.5C 1019.33,878.833 1019.67,878.167 1020,877.5C 1022.5,877.667 1025,877.833 1027.5,878C 1027.83,877.667 1028.17,877.333 1028.5,877C 1027.43,876.148 1026.43,875.315 1025.5,874.5C 1026.5,874.5 1027.5,874.5 1028.5,874.5C 1030.82,875.416 1032.98,876.75 1035,878.5C 1036.4,877.949 1037.73,877.616 1039,877.5C 1039.49,878.793 1039.66,880.127 1039.5,881.5C 1036.28,881.651 1035.95,882.484 1038.5,884C 1037.48,885.049 1037.32,886.216 1038,887.5C 1039.79,884.042 1041.12,880.376 1042,876.5C 1045.14,879.409 1048.48,879.075 1052,875.5C 1052.85,877.125 1053.85,877.458 1055,876.5C 1056.04,877.623 1056.71,878.956 1057,880.5C 1057.84,877.772 1059.17,876.105 1061,875.5C 1065.17,878.611 1069.51,878.945 1074,876.5C 1075.44,877.26 1076.94,877.926 1078.5,878.5C 1078.83,877.833 1079.17,877.167 1079.5,876.5C 1080.5,877.833 1081.5,877.833 1082.5,876.5C 1083.17,877.167 1083.83,877.833 1084.5,878.5C 1086.68,879.108 1088.68,878.441 1090.5,876.5C 1092.27,876.887 1093.94,877.553 1095.5,878.5C 1096.8,877.91 1097.63,876.91 1098,875.5C 1098.91,876.328 1099.58,877.328 1100,878.5C 1101.46,877.253 1102.96,877.253 1104.5,878.5C 1105.83,877.833 1107.17,877.167 1108.5,876.5C 1112.08,877.42 1115.41,878.087 1118.5,878.5C 1119.48,878.023 1120.31,877.357 1121,876.5C 1122.02,877.634 1122.68,877.301 1123,875.5C 1124.8,878.096 1126.13,877.763 1127,874.5C 1128.07,875.191 1129.23,875.691 1130.5,876C 1129.5,876.333 1128.5,876.667 1127.5,877C 1128.17,877.167 1128.83,877.333 1129.5,877.5C 1131.89,876.306 1134.22,875.306 1136.5,874.5C 1136.49,875.441 1136.99,876.108 1138,876.5C 1139.96,875.116 1140.96,875.783 1141,878.5C 1142.07,877.809 1143.23,877.309 1144.5,877C 1143.5,876.667 1142.5,876.333 1141.5,876C 1143.48,875.316 1145.15,875.816 1146.5,877.5C 1149.25,876.514 1151.92,876.847 1154.5,878.5C 1155.65,878.182 1156.48,877.516 1157,876.5C 1158.84,877.833 1159.34,877.666 1158.5,876C 1160.68,873.632 1163.35,872.965 1166.5,874C 1167.67,875.833 1169.17,877.333 1171,878.5C 1173,877.167 1175,877.167 1177,878.5C 1178.62,877.464 1178.78,876.297 1177.5,875C 1179.76,874.764 1181.93,874.264 1184,873.5C 1185,875.167 1186.33,876.5 1188,877.5C 1190.08,876.622 1192.41,876.622 1195,877.5C 1196.27,876.095 1196.77,874.429 1196.5,872.5C 1197.47,872.013 1198.47,871.513 1199.5,871C 1209.83,870.245 1220.17,869.912 1230.5,870C 1239.16,873.081 1247.66,876.581 1256,880.5C 1256.46,879.906 1256.63,879.239 1256.5,878.5C 1259.87,880.186 1263.21,881.853 1266.5,883.5C 1265.23,884.077 1265.23,884.743 1266.5,885.5C 1306.69,908.203 1333.85,941.536 1348,985.5C 1352.83,999.843 1356.5,1014.51 1359,1029.5C 1359.86,1031.09 1360.53,1032.75 1361,1034.5C 1361.48,1033.55 1361.65,1032.55 1361.5,1031.5C 1366.11,1049.69 1369.11,1068.36 1370.5,1087.5C 1370.69,1092.37 1371.36,1097.04 1372.5,1101.5C 1374.27,1117.41 1375.61,1133.41 1376.5,1149.5C 1375.86,1175.68 1375.02,1202.01 1374,1228.5C 1370.9,1253.51 1364.73,1277.67 1355.5,1301C 1355.57,1301.76 1355.9,1302.26 1356.5,1302.5C 1356.5,1303.83 1356.5,1303.17 1356.5,1303.5C 1348.13,1320.19 1337.46,1335.19 1324.5,1348.5C 1317.31,1356.19 1309.31,1363.02 1300.5,1369C 1273.87,1385.55 1245.21,1397.21 1214.5,1404C 1192.45,1408.72 1170.45,1412.88 1148.5,1416.5C 1140.81,1417 1133.15,1417.67 1125.5,1418.5C 1113.03,1419.6 1100.69,1420.6 1088.5,1421.5C 1079,1422.46 1069.34,1423.13 1059.5,1423.5C 1061.29,1422.69 1063.29,1422.19 1065.5,1422C 1062.83,1421.83 1060.17,1421.67 1057.5,1421.5C 1027.01,1422.71 996.679,1423.71 966.5,1424.5C 960.167,1424.5 953.833,1424.5 947.5,1424.5C 944.713,1423.52 941.713,1423.19 938.5,1423.5C 928.494,1423.32 918.494,1422.99 908.5,1422.5C 880.769,1420.08 853.102,1416.42 825.5,1411.5C 812.418,1410.22 799.752,1407.55 787.5,1403.5C 788.552,1403.65 789.552,1403.48 790.5,1403C 763.876,1396.53 738.21,1387.2 713.5,1375C 705.303,1369.4 696.97,1364.07 688.5,1359C 681.209,1351.9 673.876,1345.07 666.5,1338.5C 659.189,1330.54 652.856,1321.88 647.5,1312.5C 644.436,1305.48 641.269,1298.48 638,1291.5C 630.215,1266.49 625.548,1240.82 624,1214.5C 621.923,1167.21 624.423,1120.21 631.5,1073.5C 634.615,1050.6 638.615,1027.93 643.5,1005.5C 650.31,978.578 661.476,953.578 677,930.5C 681.175,925.469 685.341,920.469 689.5,915.5C 704.237,899.451 721.571,886.784 741.5,877.5C 749.526,874.449 757.526,871.449 765.5,868.5 Z"/></g>
<g><path style="opacity:1" fill="#caae83" d="M 1125.5,1418.5 C 1113.44,1420.98 1101.1,1421.98 1088.5,1421.5C 1100.69,1420.6 1113.03,1419.6 1125.5,1418.5 Z"/></g>
<g><path style="opacity:1" fill="#f8f2c3" d="M 1059.5,1423.5 C 1057.17,1423.5 1054.83,1423.5 1052.5,1423.5C 1048.63,1423.19 1044.96,1423.52 1041.5,1424.5C 1016.5,1424.5 991.5,1424.5 966.5,1424.5C 996.679,1423.71 1027.01,1422.71 1057.5,1421.5C 1060.17,1421.67 1062.83,1421.83 1065.5,1422C 1063.29,1422.19 1061.29,1422.69 1059.5,1423.5 Z"/></g>
<g><path style="opacity:1" fill="#92633e" d="M 908.5,1422.5 C 918.494,1422.99 928.494,1423.32 938.5,1423.5C 926.981,1424.66 915.314,1424.5 903.5,1423C 905.134,1422.51 906.801,1422.34 908.5,1422.5 Z"/></g>
<g><path style="opacity:1" fill="#a87d57" d="M 947.5,1424.5 C 953.833,1424.5 960.167,1424.5 966.5,1424.5C 991.5,1424.5 1016.5,1424.5 1041.5,1424.5C 1044.85,1424.33 1048.18,1424.5 1051.5,1425C 1053.4,1426.06 1053.56,1426.9 1052,1427.5C 1047.04,1426.87 1042.04,1426.54 1037,1426.5C 1031.99,1426.56 1027.15,1427.22 1022.5,1428.5C 1006.89,1427.36 991.224,1427.36 975.5,1428.5C 974.167,1428.33 972.833,1428.17 971.5,1428C 971.833,1427.67 972.167,1427.33 972.5,1427C 964.833,1426.67 957.167,1426.33 949.5,1426C 948.584,1425.72 947.918,1425.22 947.5,1424.5 Z"/></g>
<g><path style="opacity:1" fill="#c1af9f" d="M 913.5,1446.5 C 927.021,1446.51 940.354,1447.18 953.5,1448.5C 939.976,1448.55 926.643,1447.89 913.5,1446.5 Z"/></g>
</svg>
